<svg width="55" height="43" viewBox="0 0 55 43" fill="none" xmlns="http://www.w3.org/2000/svg">
<path d="M8.43497 30.6248H8.17941L8.02971 30.8319L0.5 41.2511V0.5H0.513623H0.541183H0.569433H0.598368H0.627988H0.658288H0.689269H0.720925H0.753256H0.786259H0.819932H0.854271H0.889275H0.924942H0.961268H0.998252H1.03589H1.07418H1.11312H1.15271H1.19295H1.23383H1.27535H1.3175H1.3603H1.40372H1.44778H1.49247H1.53778H1.58372H1.63027H1.67745H1.72524H1.77365H1.82267H1.8723H1.92254H1.97338H2.02482H2.07686H2.1295H2.18274H2.23657H2.29098H2.34599H2.40158H2.45776H2.51451H2.57184H2.62975H2.68824H2.74729H2.80691H2.8671H2.92785H2.98916H3.05104H3.11347H3.17645H3.23998H3.30407H3.3687H3.43388H3.49959H3.56585H3.63265H3.69998H3.76784H3.83623H3.90515H3.9746H4.04457H4.11506H4.18607H4.25759H4.32963H4.40217H4.47523H4.54879H4.62286H4.69743H4.77249H4.84806H4.92411H5.00066H5.0777H5.15523H5.23324H5.31173H5.3907H5.47015H5.55007H5.63047H5.71134H5.79267H5.87447H5.95673H6.03946H6.12264H6.20627H6.29036H6.37491H6.4599H6.54533H6.63121H6.71753H6.80429H6.89149H6.97912H7.06718H7.15567H7.24459H7.33393H7.4237H7.51388H7.60448H7.6955H7.78693H7.87877H7.97101H8.06366H8.15672H8.25017H8.34403H8.43828H8.53292H8.62795H8.72337H8.81918H8.91537H9.01194H9.10889H9.20622H9.30392H9.402H9.50044H9.59925H9.69842H9.79796H9.89785H9.99811H10.0987H10.1997H10.301H10.4026H10.5046H10.607H10.7097H10.8127H10.9161H11.0198H11.1238H11.2281H11.3328H11.4378H11.5431H11.6488H11.7547H11.861H11.9676H12.0745H12.1817H12.2892H12.397H12.5051H12.6135H12.7222H12.8312H12.9405H13.05H13.1599H13.27H13.3804H13.4911H13.6021H13.7133H13.8249H13.9366H14.0487H14.161H14.2736H14.3864H14.4995H14.6128H14.7264H14.8403H14.9543H15.0687H15.1832H15.2981H15.4131H15.5284H15.6439H15.7597H15.8756H15.9918H16.1083H16.2249H16.3418H16.4588H16.5761H16.6936H16.8113H16.9293H17.0474H17.1657H17.2842H17.4029H17.5218H17.6409H17.7602H17.8797H17.9994H18.1192H18.2392H18.3594H18.4798H18.6003H18.7211H18.8419H18.963H19.0842H19.2056H19.3271H19.4488H19.5706H19.6926H19.8147H19.937H20.0595H20.182H20.3047H20.4276H20.5505H20.6736H20.7969H20.9202H21.0437H21.1673H21.2911H21.4149H21.5389H21.6629H21.7871H21.9114H22.0358H22.1603H22.2849H22.4096H22.5344H22.6593H22.7842H22.9093H23.0344H23.1597H23.285H23.4104H23.5358H23.6614H23.787H23.9127H24.0384H24.1642H24.2901H24.416H24.542H24.6681H24.7942H24.9203H25.0465H25.1727H25.299H25.4253H25.5517H25.6781H25.8045H25.931H26.0575H26.184H26.3105H26.4371H26.5636H26.6902H26.8168H26.9434H27.0701H27.1967H27.3233H27.45H27.5766H27.7032H27.8299H27.9565H28.0831H28.2097H28.3363H28.4628H28.5894H28.7159H28.8424H28.9689H29.0953H29.2217H29.3481H29.4744H29.6007H29.727H29.8532H29.9794H30.1055H30.2315H30.3576H30.4835H30.6094H30.7352H30.861H30.9867H31.1124H31.2379H31.3634H31.4889H31.6142H31.7395H31.8647H31.9898H32.1148H32.2397H32.3645H32.4893H32.6139H32.7384H32.8629H32.9872H33.1114H33.2355H33.3596H33.4834H33.6072H33.7309H33.8544H33.9778H34.1011H34.2243H34.3473H34.4702H34.593H34.7156H34.8381H34.9604H35.0826H35.2047H35.3266H35.4483H35.5699H35.6914H35.8127H35.9338H36.0547H36.1755H36.2961H36.4166H36.5368H36.6569H36.7769H36.8966H37.0162H37.1355H37.2547H37.3737H37.4925H37.6111H37.7295H37.8477H37.9657H38.0835H38.2011H38.3185H38.4356H38.5526H38.6693H38.7859H38.9022H39.0182H39.1341H39.2497H39.3651H39.4802H39.5951H39.7098H39.8243H39.9384H40.0524H40.1661H40.2795H40.3927H40.5057H40.6184H40.7308H40.8429H40.9548H41.0665H41.1778H41.2889H41.3997H41.5103H41.6205H41.7305H41.8402H41.9496H42.0587H42.1675H42.276H42.3843H42.4922H42.5998H42.7072H42.8142H42.9209H43.0273H43.1334H43.2392H43.3447H43.4498H43.5546H43.6591H43.7633H43.8671H43.9706H44.0738H44.1766H44.2791H44.3812H44.483H44.5845H44.6856H44.7864H44.8868H44.9868H45.0865H45.1858H45.2848H45.3834H45.4816H45.5795H45.677H45.7741H45.8708H45.9672H46.0632H46.1587H46.2539H46.3488H46.4432H46.5372H46.6308H46.724H46.8169H46.9093H47.0013H47.0929H47.1841H47.2749H47.3652H47.4552H47.5447H47.6338H47.7225H47.8107H47.8985H47.9859H48.0729H48.1594H48.2455H48.3311H48.4163H48.501C51.7576 0.5 54.327 2.92611 54.327 5.83601V25.2891C54.327 28.1986 51.7576 30.6248 48.501 30.6248H48.4264H48.3516H48.2764H48.2008H48.1249H48.0487H47.9722H47.8954H47.8182H47.7407H47.6629H47.5848H47.5064H47.4276H47.3486H47.2692H47.1896H47.1096H47.0293H46.9487H46.8679H46.7867H46.7052H46.6235H46.5415H46.4591H46.3765H46.2936H46.2104H46.1269H46.0432H45.9592H45.8749H45.7903H45.7054H45.6203H45.5349H45.4493H45.3633H45.2772H45.1907H45.104H45.0171H44.9298H44.8424H44.7547H44.6667H44.5785H44.49H44.4013H44.3124H44.2232H44.1338H44.0441H43.9542H43.8641H43.7737H43.6831H43.5923H43.5013H43.41H43.3185H43.2268H43.1349H43.0428H42.9504H42.8578H42.7651H42.6721H42.5789H42.4855H42.3919H42.2981H42.2041H42.1099H42.0156H41.921H41.8262H41.7312H41.6361H41.5408H41.4453H41.3496H41.2537H41.1576H41.0614H40.965H40.8684H40.7717H40.6747H40.5777H40.4804H40.383H40.2854H40.1877H40.0898H39.9918H39.8936H39.7952H39.6967H39.5981H39.4993H39.4003H39.3012H39.202H39.1027H39.0032H38.9035H38.8038H38.7039H38.6038H38.5037H38.4034H38.303H38.2025H38.1018H38.0011H37.9002H37.7992H37.6981H37.5969H37.4956H37.3941H37.2926H37.191H37.0892H36.9874H36.8855H36.7834H36.6813H36.5791H36.4768H36.3744H36.2719H36.1694H36.0667H35.964H35.8612H35.7583H35.6554H35.5523H35.4492H35.3461H35.2428H35.1395H35.0362H34.9328H34.8293H34.7257H34.6221H34.5185H34.4148H34.311H34.2072H34.1034H33.9995H33.8956H33.7916H33.6876H33.5835H33.4794H33.3753H33.2711H33.167H33.0628H32.9585H32.8543H32.75H32.6457H32.5414H32.437H32.3327H32.2283H32.1239H32.0196H31.9152H31.8108H31.7064H31.602H31.4976H31.3932H31.2888H31.1844H31.08H30.9757H30.8713H30.767H30.6626H30.5583H30.454H30.3498H30.2455H30.1413H30.0371H29.9329H29.8288H29.7247H29.6206H29.5166H29.4126H29.3086H29.2047H29.1009H28.997H28.8933H28.7895H28.6859H28.5823H28.4787H28.3752H28.2717H28.1683H28.065H27.9617H27.8585H27.7554H27.6524H27.5494H27.4465H27.3436H27.2409H27.1382H27.0356H26.9331H26.8306H26.7283H26.6261H26.5239H26.4218H26.3198H26.218H26.1162H26.0145H25.9129H25.8114H25.7101H25.6088H25.5077H25.4066H25.3057H25.2049H25.1042H25.0036H24.9032H24.8028H24.7026H24.6025H24.5026H24.4028H24.3031H24.2035H24.1041H24.0048H23.9057H23.8067H23.7078H23.6091H23.5105H23.4121H23.3138H23.2157H23.1178H23.02H22.9223H22.8248H22.7275H22.6304H22.5334H22.4365H22.3399H22.2434H22.1471H22.051H21.955H21.8592H21.7636H21.6682H21.573H21.4779H21.3831H21.2884H21.194H21.0997H21.0056H20.9117H20.818H20.7246H20.6313H20.5382H20.4453H20.3527H20.2602H20.168H20.076H19.9842H19.8926H19.8012H19.7101H19.6192H19.5285H19.438H19.3478H19.2578H19.168H19.0785H18.9892H18.9002H18.8114H18.7228H18.6345H18.5464H18.4586H18.371H18.2837H18.1966H18.1098H18.0232H17.9369H17.8509H17.7651H17.6796H17.5944H17.5094H17.4247H17.3403H17.2561H17.1722H17.0886H17.0053H16.9223H16.8396H16.7571H16.6749H16.593H16.5114H16.4302H16.3491H16.2684H16.188H16.1079H16.0281H15.9486H15.8695H15.7906H15.712H15.6338H15.5558H15.4782H15.4009H15.3239H15.2472H15.1709H15.0949H15.0192H14.9438H14.8688H14.7941H14.7197H14.6457H14.572H14.4987H14.4257H14.353H14.2807H14.2088H14.1372H14.0659H13.995H13.9245H13.8543H13.7844H13.715H13.6459H13.5771H13.5087H13.4407H13.3731H13.3058H13.239H13.1725H13.1063H13.0406H12.9752H12.9102H12.8456H12.7814H12.7176H12.6542H12.5911H12.5285H12.4662H12.4044H12.3429H12.2819H12.2213H12.161H12.1012H12.0418H11.9828H11.9242H11.866H11.8083H11.751H11.694H11.6376H11.5815H11.5259H11.4707H11.4159H11.3615H11.3076H11.2542H11.2011H11.1485H11.0964H11.0447H10.9934H10.9426H10.8923H10.8424H10.7929H10.7439H10.6954H10.6473H10.5996H10.5525H10.5058H10.4596H10.4138H10.3685H10.3237H10.2794H10.2355H10.1921H10.1492H10.1068H10.0648H10.0234H9.9824H9.94192H9.90193H9.86243H9.82343H9.78492H9.74692H9.70941H9.67241H9.63591H9.59992H9.56443H9.52946H9.49499H9.46105H9.42761H9.3947H9.3623H9.33042H9.29907H9.26824H9.23794H9.20817H9.17893H9.15022H9.12205H9.09441H9.06731H9.04075H9.01473H8.98926H8.96433H8.93995H8.91612H8.89284H8.87011H8.84794H8.82632H8.80527H8.78477H8.76484H8.74547H8.72667H8.70843H8.69077H8.67368H8.65716H8.64122H8.62585H8.61107H8.59686H8.58324H8.57021H8.55776H8.5459H8.53463H8.52396H8.51388H8.50439H8.4955H8.48722H8.47953H8.47245H8.46598H8.46011H8.45485H8.45021H8.44618H8.44276H8.43996H8.43778H8.43622H8.43528C8.43507 30.6248 8.43497 30.6248 8.43497 31.1248V30.6248Z" stroke="#8ECAE6"/>
<path d="M26.6217 21.1024C25.8857 21.1024 25.1924 20.9744 24.5417 20.7184C23.8911 20.4624 23.3684 20.073 22.9737 19.5504C22.5791 19.0277 22.3817 18.377 22.3817 17.5984C22.3817 17.033 22.4991 16.5157 22.7337 16.0464C22.9684 15.577 23.3364 15.1877 23.8377 14.8784C23.5497 14.6437 23.3204 14.3664 23.1497 14.0464C22.9791 13.7157 22.8937 13.3264 22.8937 12.8784C22.8937 12.1957 23.0697 11.6144 23.4217 11.1344C23.7737 10.6437 24.2324 10.2704 24.7977 10.0144C25.3631 9.75838 25.9711 9.63038 26.6217 9.63038C27.2831 9.63038 27.8964 9.76372 28.4617 10.0304C29.0271 10.2864 29.4751 10.6597 29.8057 11.1504C30.1471 11.6304 30.3177 12.2117 30.3177 12.8944C30.3177 13.3317 30.2377 13.7157 30.0777 14.0464C29.9284 14.3664 29.7044 14.6437 29.4057 14.8784C29.9071 15.1877 30.2751 15.577 30.5097 16.0464C30.7444 16.5157 30.8617 17.033 30.8617 17.5984C30.8617 18.377 30.6644 19.0277 30.2697 19.5504C29.8751 20.073 29.3524 20.4624 28.7017 20.7184C28.0617 20.9744 27.3684 21.1024 26.6217 21.1024ZM26.6217 19.0224C27.0164 19.0224 27.3684 18.9637 27.6777 18.8464C27.9871 18.7184 28.2271 18.5317 28.3977 18.2864C28.5684 18.041 28.6537 17.737 28.6537 17.3744C28.6537 17.0224 28.5684 16.729 28.3977 16.4944C28.2271 16.249 27.9871 16.0677 27.6777 15.9504C27.3684 15.8224 27.0164 15.7584 26.6217 15.7584C26.2271 15.7584 25.8751 15.8224 25.5657 15.9504C25.2564 16.0677 25.0111 16.249 24.8297 16.4944C24.6591 16.729 24.5737 17.0224 24.5737 17.3744C24.5737 17.737 24.6591 18.041 24.8297 18.2864C25.0111 18.5317 25.2564 18.7184 25.5657 18.8464C25.8751 18.9637 26.2271 19.0224 26.6217 19.0224ZM26.6217 14.2704C27.0804 14.2704 27.4484 14.1584 27.7257 13.9344C28.0031 13.7104 28.1417 13.4117 28.1417 13.0384C28.1417 12.633 28.0084 12.313 27.7417 12.0784C27.4751 11.8437 27.1017 11.7264 26.6217 11.7264C26.3124 11.7264 26.0404 11.7797 25.8057 11.8864C25.5817 11.9824 25.4057 12.1317 25.2777 12.3344C25.1604 12.5264 25.1017 12.7557 25.1017 13.0224C25.1017 13.4064 25.2404 13.7104 25.5177 13.9344C25.8057 14.1584 26.1737 14.2704 26.6217 14.2704ZM31.8628 20.9424V18.7504H34.1668V20.9424H31.8628Z" fill="#8ECAE6"/>
</svg>
