<svg width="61" height="43" viewBox="0 0 61 43" fill="none" xmlns="http://www.w3.org/2000/svg">
<path d="M9.29164 30.412H9.05162L8.90151 30.5993L0.5 41.0808V0.5H0.507355H0.53619H0.565788H0.596148H0.627266H0.65914H0.691768H0.725146H0.759272H0.794144H0.829759H0.866114H0.903206H0.941033H0.979592H1.01888H1.0589H1.09964H1.1411H1.18328H1.22618H1.26979H1.31411H1.35914H1.40487H1.45131H1.49845H1.54629H1.59482H1.64405H1.69396H1.74456H1.79585H1.84782H1.90046H1.95379H2.00779H2.06246H2.11779H2.1738H2.23047H2.28779H2.34578H2.40442H2.46372H2.52366H2.58425H2.64549H2.70737H2.76989H2.83305H2.89684H2.96126H3.02631H3.09199H3.15829H3.22521H3.29275H3.36091H3.42968H3.49906H3.56904H3.63964H3.71083H3.78263H3.85502H3.92801H4.00159H4.07576H4.15051H4.22585H4.30177H4.37827H4.45535H4.53299H4.61121H4.69H4.76935H4.84927H4.92975H5.01078H5.09237H5.17451H5.2572H5.34044H5.42422H5.50854H5.59341H5.67881H5.76474H5.8512H5.93819H6.02571H6.11375H6.20232H6.2914H6.38099H6.4711H6.56172H6.65284H6.74447H6.8366H6.92923H7.02236H7.11598H7.21009H7.30469H7.39978H7.49535H7.5914H7.68793H7.78494H7.88242H7.98037H8.07878H8.17766H8.27701H8.37681H8.47707H8.57779H8.67895H8.78057H8.88263H8.98514H9.08808H9.19147H9.29529H9.39954H9.50423H9.60934H9.71488H9.82084H9.92722H10.034H10.1412H10.2489H10.3569H10.4653H10.5742H10.6834H10.7931H10.9031H11.0135H11.1244H11.2356H11.3472H11.4592H11.5715H11.6843H11.7974H11.9109H12.0247H12.1389H12.2535H12.3685H12.4838H12.5995H12.7155H12.8319H12.9486H13.0656H13.183H13.3008H13.4189H13.5373H13.6561H13.7751H13.8946H14.0143H14.1344H14.2547H14.3754H14.4964H14.6178H14.7394H14.8613H14.9836H15.1061H15.2289H15.3521H15.4755H15.5992H15.7232H15.8475H15.9721H16.0969H16.2221H16.3475H16.4731H16.5991H16.7253H16.8518H16.9785H17.1055H17.2328H17.3603H17.488H17.616H17.7443H17.8728H18.0015H18.1305H18.2597H18.3891H18.5188H18.6486H18.7788H18.9091H19.0397H19.1704H19.3014H19.4326H19.564H19.6956H19.8274H19.9594H20.0917H20.2241H20.3567H20.4894H20.6224H20.7556H20.8889H21.0224H21.1561H21.29H21.4241H21.5583H21.6926H21.8272H21.9619H22.0967H22.2318H22.3669H22.5022H22.6377H22.7733H22.9091H23.045H23.181H23.3172H23.4534H23.5899H23.7264H23.8631H23.9999H24.1368H24.2738H24.411H24.5482H24.6856H24.823H24.9606H25.0983H25.236H25.3739H25.5118H25.6499H25.788H25.9262H26.0645H26.2029H26.3413H26.4798H26.6184H26.7571H26.8958H27.0346H27.1734H27.3123H27.4513H27.5903H27.7293H27.8685H28.0076H28.1468H28.286H28.4253H28.5646H28.7039H28.8433H28.9827H29.1221H29.2615H29.401H29.5404H29.6799H29.8194H29.9589H30.0984H30.2379H30.3774H30.5169H30.6563H30.7958H30.9353H31.0747H31.2142H31.3536H31.493H31.6324H31.7717H31.911H32.0503H32.1895H32.3288H32.4679H32.607H32.7461H32.8852H33.0241H33.1631H33.3019H33.4407H33.5795H33.7182H33.8568H33.9953H34.1338H34.2722H34.4105H34.5488H34.687H34.825H34.963H35.1009H35.2387H35.3764H35.514H35.6515H35.7889H35.9262H36.0634H36.2005H36.3375H36.4743H36.611H36.7476H36.8841H37.0205H37.1567H37.2928H37.4287H37.5645H37.7002H37.8357H37.9711H38.1063H38.2414H38.3763H38.5111H38.6457H38.7802H38.9144H39.0486H39.1825H39.3163H39.4499H39.5833H39.7165H39.8496H39.9825H40.1151H40.2476H40.3799H40.512H40.6439H40.7756H40.9071H41.0384H41.1695H41.3003H41.431H41.5614H41.6916H41.8216H41.9514H42.0809H42.2102H42.3393H42.4681H42.5967H42.725H42.8532H42.981H43.1086H43.236H43.3631H43.4899H43.6165H43.7428H43.8689H43.9947H44.1202H44.2455H44.3704H44.4951H44.6195H44.7437H44.8675H44.9911H45.1143H45.2373H45.36H45.4823H45.6044H45.7261H45.8476H45.9687H46.0896H46.2101H46.3303H46.4502H46.5697H46.6889H46.8078H46.9264H47.0446H47.1625H47.2801H47.3973H47.5142H47.6307H47.7468H47.8627H47.9781H48.0932H48.208H48.3223H48.4364H48.55H48.6633H48.7762H48.8887H49.0009H49.1126H49.224H49.335H49.4456H49.5558H49.6656H49.775H49.884H49.9927H50.1009H50.2087H50.3161H50.423H50.5296H50.6357H50.7415H50.8467H50.9516H51.0561H51.1601H51.2636H51.3668H51.4695H51.5717H51.6735H51.7749H51.8758H51.9762H52.0762H52.1758H52.2749H52.3735H52.4716H52.5693H52.6665H52.7632H52.8595H52.9553H53.0506H53.1454H53.2397H53.3335H53.4269C57.0898 0.5 59.8954 2.95333 59.8954 5.79611V25.1161C59.8954 27.9586 57.0898 30.412 53.4269 30.412H53.3448H53.2623H53.1794H53.0962H53.0126H52.9287H52.8444H52.7598H52.6748H52.5894H52.5037H52.4176H52.3312H52.2445H52.1574H52.07H51.9823H51.8942H51.8057H51.717H51.6279H51.5385H51.4488H51.3587H51.2683H51.1776H51.0866H50.9953H50.9037H50.8117H50.7194H50.6269H50.534H50.4408H50.3474H50.2536H50.1596H50.0652H49.9706H49.8756H49.7804H49.6849H49.5891H49.493H49.3967H49.3001H49.2032H49.106H49.0085H48.9108H48.8128H48.7146H48.6161H48.5173H48.4183H48.319H48.2195H48.1197H48.0196H47.9194H47.8188H47.7181H47.617H47.5158H47.4143H47.3126H47.2106H47.1084H47.006H46.9033H46.8004H46.6973H46.594H46.4905H46.3867H46.2828H46.1786H46.0742H45.9696H45.8648H45.7598H45.6545H45.5491H45.4435H45.3377H45.2317H45.1255H45.0191H44.9125H44.8058H44.6988H44.5917H44.4844H44.3769H44.2693H44.1614H44.0534H43.9452H43.8369H43.7284H43.6197H43.5109H43.4019H43.2928H43.1835H43.074H42.9644H42.8547H42.7448H42.6347H42.5245H42.4142H42.3038H42.1932H42.0824H41.9716H41.8606H41.7494H41.6382H41.5268H41.4153H41.3037H41.192H41.0801H40.9682H40.8561H40.7439H40.6317H40.5193H40.4068H40.2942H40.1815H40.0687H39.9558H39.8428H39.7298H39.6166H39.5034H39.39H39.2766H39.1631H39.0496H38.9359H38.8222H38.7084H38.5946H38.4806H38.3666H38.2526H38.1385H38.0243H37.91H37.7957H37.6814H37.567H37.4526H37.3381H37.2235H37.109H36.9943H36.8797H36.765H36.6503H36.5355H36.4207H36.3059H36.191H36.0762H35.9613H35.8463H35.7314H35.6165H35.5015H35.3865H35.2715H35.1566H35.0416H34.9266H34.8116H34.6965H34.5816H34.4666H34.3516H34.2366H34.1216H34.0067H33.8917H33.7768H33.6619H33.547H33.4322H33.3173H33.2025H33.0877H32.973H32.8583H32.7436H32.629H32.5144H32.3998H32.2853H32.1708H32.0564H31.9421H31.8277H31.7135H31.5993H31.4851H31.3711H31.257H31.1431H31.0292H30.9154H30.8016H30.6879H30.5743H30.4608H30.3474H30.234H30.1207H30.0075H29.8944H29.7814H29.6685H29.5556H29.4429H29.3303H29.2177H29.1053H28.993H28.8807H28.7686H28.6566H28.5447H28.4329H28.3213H28.2097H28.0983H27.987H27.8758H27.7648H27.6538H27.543H27.4324H27.3219H27.2115H27.1012H26.9911H26.8812H26.7713H26.6617H26.5522H26.4428H26.3336H26.2245H26.1156H26.0069H25.8983H25.7899H25.6816H25.5736H25.4657H25.3579H25.2504H25.143H25.0358H24.9287H24.8219H24.7153H24.6088H24.5025H24.3964H24.2905H24.1848H24.0793H23.974H23.8689H23.764H23.6593H23.5548H23.4505H23.3465H23.2426H23.139H23.0356H22.9324H22.8294H22.7266H22.6241H22.5218H22.4198H22.3179H22.2163H22.115H22.0138H21.913H21.8123H21.7119H21.6118H21.5119H21.4122H21.3128H21.2137H21.1148H21.0162H20.9178H20.8197H20.7219H20.6243H20.527H20.43H20.3333H20.2368H20.1406H20.0447H19.949H19.8537H19.7586H19.6639H19.5694H19.4752H19.3813H19.2877H19.1944H19.1014H19.0087H18.9163H18.8242H18.7324H18.641H18.5498H18.459H18.3685H18.2783H18.1884H18.0988H18.0096H17.9207H17.8321H17.7439H17.656H17.5684H17.4812H17.3943H17.3078H17.2216H17.1357H17.0502H16.965H16.8802H16.7958H16.7117H16.6279H16.5446H16.4616H16.3789H16.2966H16.2147H16.1332H16.052H15.9712H15.8908H15.8108H15.7311H15.6519H15.573H15.4945H15.4164H15.3387H15.2613H15.1844H15.1079H15.0318H14.956H14.8807H14.8058H14.7313H14.6572H14.5835H14.5103H14.4374H14.365H14.293H14.2214H14.1502H14.0795H14.0092H13.9393H13.8699H13.8009H13.7323H13.6642H13.5965H13.5293H13.4625H13.3961H13.3302H13.2648H13.1998H13.1353H13.0712H13.0076H12.9444H12.8817H12.8195H12.7577H12.6965H12.6356H12.5753H12.5155H12.4561H12.3972H12.3388H12.2808H12.2234H12.1664H12.11H12.054H11.9985H11.9435H11.8891H11.8351H11.7816H11.7286H11.6762H11.6242H11.5728H11.5219H11.4715H11.4216H11.3722H11.3234H11.275H11.2272H11.18H11.1332H11.087H11.0414H10.9962H10.9516H10.9076H10.8641H10.8211H10.7787H10.7368H10.6955H10.6548H10.6146H10.5749H10.5358H10.4973H10.4593H10.4219H10.3851H10.3488H10.3132H10.278H10.2435H10.2095H10.1762H10.1434H10.1112H10.0795H10.0485H10.0181H9.98821H9.95895H9.93029H9.90223H9.87477H9.84791H9.82166H9.79601H9.77098H9.74656H9.72275H9.69955H9.67697H9.65502H9.63368H9.61297H9.59288H9.57343H9.5546H9.5364H9.51884H9.50192H9.48563H9.46998H9.45498H9.44062H9.42691H9.41385H9.40143H9.38967H9.37857H9.36812H9.35833H9.3492H9.34074H9.33294H9.32581H9.31934H9.31355H9.30843H9.30399H9.30023H9.29714H9.29474H9.29302H9.29199C9.29176 30.412 9.29164 30.412 9.29164 30.912V30.412Z" stroke="#8ECAE6"/>
<path d="M19.1912 20.9424V19.3104C19.5219 19.0757 19.9112 18.7984 20.3592 18.4784C20.8072 18.1584 21.2606 17.8064 21.7192 17.4224C22.1886 17.0384 22.6206 16.6277 23.0152 16.1904C23.4099 15.7424 23.7299 15.2837 23.9752 14.8144C24.2312 14.3344 24.3592 13.8437 24.3592 13.3424C24.3592 12.9157 24.2472 12.553 24.0232 12.2544C23.7992 11.945 23.4366 11.7904 22.9352 11.7904C22.5086 11.7904 22.1779 11.9024 21.9432 12.1264C21.7086 12.3504 21.5379 12.6277 21.4312 12.9584C21.3246 13.289 21.2606 13.6197 21.2392 13.9504L19.0792 13.7744C19.0792 13.2837 19.1646 12.7984 19.3352 12.3184C19.5059 11.8277 19.7566 11.385 20.0872 10.9904C20.4179 10.585 20.8232 10.265 21.3032 10.0304C21.7939 9.78505 22.3592 9.66238 22.9992 9.66238C23.6819 9.66238 24.2899 9.81172 24.8232 10.1104C25.3672 10.409 25.7886 10.8304 26.0872 11.3744C26.3966 11.9184 26.5512 12.553 26.5512 13.2784C26.5512 13.8224 26.4606 14.3504 26.2792 14.8624C26.1086 15.3744 25.8579 15.865 25.5272 16.3344C25.2072 16.8037 24.8179 17.2517 24.3592 17.6784C23.9006 18.0944 23.3832 18.4837 22.8072 18.8464C22.2312 19.1984 21.6126 19.5184 20.9512 19.8064L21.5272 18.8944H26.9832V20.9424H19.1912ZM31.7763 20.9424V12.1744L32.4003 13.2624H28.9283V11.5184H30.5923C30.9763 11.5184 31.2697 11.433 31.4723 11.2624C31.675 11.0917 31.7763 10.793 31.7763 10.3664V9.79038H33.9683V20.9424H31.7763ZM37.2575 20.9424V18.7504H39.5615V20.9424H37.2575Z" fill="#8ECAE6"/>
</svg>
