<svg width="60" height="60" viewBox="0 0 60 60" fill="none" xmlns="http://www.w3.org/2000/svg">
<path d="M35.125 45.9375L47.5625 33.5L44 30L35.125 38.875L31.625 35.3125L28.0625 38.875L35.125 45.9375ZM17.5 37.5H25V32.5H17.5V37.5ZM17.5 30H35V25H17.5V30ZM17.5 22.5H35V17.5H17.5V22.5ZM30 55C26.5417 55 23.2917 54.3433 20.25 53.03C17.2083 51.7183 14.5625 49.9375 12.3125 47.6875C10.0625 45.4375 8.28167 42.7917 6.97 39.75C5.65667 36.7083 5 33.4583 5 30C5 26.5417 5.65667 23.2917 6.97 20.25C8.28167 17.2083 10.0625 14.5625 12.3125 12.3125C14.5625 10.0625 17.2083 8.28083 20.25 6.9675C23.2917 5.65583 26.5417 5 30 5C33.4583 5 36.7083 5.65583 39.75 6.9675C42.7917 8.28083 45.4375 10.0625 47.6875 12.3125C49.9375 14.5625 51.7183 17.2083 53.03 20.25C54.3433 23.2917 55 26.5417 55 30C55 33.4583 54.3433 36.7083 53.03 39.75C51.7183 42.7917 49.9375 45.4375 47.6875 47.6875C45.4375 49.9375 42.7917 51.7183 39.75 53.03C36.7083 54.3433 33.4583 55 30 55ZM30 50C35.5833 50 40.3125 48.0625 44.1875 44.1875C48.0625 40.3125 50 35.5833 50 30C50 24.4167 48.0625 19.6875 44.1875 15.8125C40.3125 11.9375 35.5833 10 30 10C24.4167 10 19.6875 11.9375 15.8125 15.8125C11.9375 19.6875 10 24.4167 10 30C10 35.5833 11.9375 40.3125 15.8125 44.1875C19.6875 48.0625 24.4167 50 30 50Z" fill="#8ECAE6"/>
</svg>
