<svg width="16" height="16" viewBox="0 0 16 16" fill="none" xmlns="http://www.w3.org/2000/svg">
<path fill-rule="evenodd" clip-rule="evenodd" d="M3.3998 1.33391C3.92038 0.812894 4.7648 0.812658 5.28567 1.33338L7.7475 3.7945C8.26817 4.31503 8.26841 5.15905 7.74802 5.67987L6.87544 6.55317L9.71164 9.38892L10.5837 8.51619C11.1042 7.99517 11.9487 7.99494 12.4695 8.51566L14.6666 10.7121C15.1873 11.2327 15.1875 12.0767 14.6672 12.5975L13.2137 14.0521C12.3615 14.905 11.0497 15.0954 9.99022 14.5198C6.39194 12.565 3.43613 9.60962 1.48046 6.01191C0.904876 4.95304 1.09422 3.64139 1.94619 2.78872L3.3998 1.33391ZM6.80482 4.73745L4.343 2.27633L2.88939 3.73114C2.45495 4.16593 2.35829 4.83497 2.65191 5.37513C4.48465 8.74671 7.25469 11.5164 10.6267 13.3482C11.167 13.6417 11.836 13.5446 12.2705 13.1097L13.724 11.6551L11.5269 9.4586L9.71211 11.2748L4.99014 6.55363L6.80482 4.73745Z" fill="#F5841F"/>
</svg>
