<svg width="16" height="16" viewBox="0 0 16 16" fill="none" xmlns="http://www.w3.org/2000/svg">
<path fill-rule="evenodd" clip-rule="evenodd" d="M1.33333 3.33333H14.6667V4.50929L8 7.84262L1.33333 4.50929V3.33333ZM0 3.33333C0 2.59695 0.596954 2 1.33333 2H14.6667C15.403 2 16 2.59695 16 3.33333V5.33333V12C16 13.1046 15.1046 14 14 14H2C0.89543 14 0 13.1046 0 12V5.33333V3.33333ZM1.33333 6V12C1.33333 12.3682 1.63181 12.6667 2 12.6667H14C14.3682 12.6667 14.6667 12.3682 14.6667 12V6L8 9.33333L1.33333 6Z" fill="#F5841F"/>
</svg>
