<svg width="91" height="90" viewBox="0 0 91 90" fill="none" xmlns="http://www.w3.org/2000/svg">
<path d="M36.125 34.9688V55.0312C36.125 56.4688 36.7812 57.5625 38.0937 58.3125C39.4062 59.0625 40.6875 59 41.9375 58.125L57.5 48.1875C58.6875 47.4375 59.2812 46.375 59.2812 45C59.2812 43.625 58.6875 42.5625 57.5 41.8125L41.9375 31.875C40.6875 31 39.4062 30.9375 38.0937 31.6875C36.7812 32.4375 36.125 33.5312 36.125 34.9688ZM45.5 82.5C40.3125 82.5 35.4375 81.515 30.875 79.545C26.3125 77.5775 22.3438 74.9062 18.9688 71.5312C15.5938 68.1562 12.9225 64.1875 10.955 59.625C8.985 55.0625 8 50.1875 8 45C8 39.8125 8.985 34.9375 10.955 30.375C12.9225 25.8125 15.5938 21.8438 18.9688 18.4688C22.3438 15.0938 26.3125 12.4212 30.875 10.4512C35.4375 8.48375 40.3125 7.5 45.5 7.5C50.6875 7.5 55.5625 8.48375 60.125 10.4512C64.6875 12.4212 68.6562 15.0938 72.0312 18.4688C75.4062 21.8438 78.0775 25.8125 80.045 30.375C82.015 34.9375 83 39.8125 83 45C83 50.1875 82.015 55.0625 80.045 59.625C78.0775 64.1875 75.4062 68.1562 72.0312 71.5312C68.6562 74.9062 64.6875 77.5775 60.125 79.545C55.5625 81.515 50.6875 82.5 45.5 82.5Z" fill="#F5841F"/>
</svg>
