<svg width="60" height="60" viewBox="0 0 60 60" fill="none" xmlns="http://www.w3.org/2000/svg">
<path d="M31.25 25C31.25 20.875 27.875 17.5 23.75 17.5C19.625 17.5 16.25 20.875 16.25 25C16.25 29.125 19.625 32.5 23.75 32.5C27.875 32.5 31.25 29.125 31.25 25ZM23.75 27.5C22.375 27.5 21.25 26.375 21.25 25C21.25 23.625 22.375 22.5 23.75 22.5C25.125 22.5 26.25 23.625 26.25 25C26.25 26.375 25.125 27.5 23.75 27.5ZM40 32.5C42.775 32.5 45 30.275 45 27.5C45 24.725 42.775 22.5 40 22.5C37.225 22.5 34.975 24.725 35 27.5C35 30.275 37.225 32.5 40 32.5ZM29.975 5.02502C16.175 5.02502 4.97501 16.225 4.97501 30.025C4.97501 43.825 16.175 55.025 29.975 55.025C43.775 55.025 54.975 43.825 54.975 30.025C54.975 16.225 43.775 5.02502 29.975 5.02502ZM14.6 42.8C16.3 41.45 20.275 40.025 23.75 40.025C23.925 40.025 24.125 40.05 24.325 40.05C24.925 38.45 26 36.825 27.575 35.4C26.3137 35.1584 25.034 35.0246 23.75 35C20.5 35 15.275 36.125 11.925 38.575C10.675 35.975 9.97501 33.075 9.97501 30C9.97501 18.975 18.95 10 29.975 10C41 10 49.975 18.975 49.975 30C49.975 33 49.3 35.85 48.1 38.425C45.6 36.95 42.2 36.25 40 36.25C36.2 36.25 28.75 38.275 28.75 43V49.95C26.0266 49.7952 23.3644 49.0803 20.9297 47.85C18.495 46.6198 16.3402 44.9007 14.6 42.8Z" fill="#8ECAE6"/>
</svg>
