<svg width="170" height="36" viewBox="0 0 170 36" fill="none" xmlns="http://www.w3.org/2000/svg">
<path d="M51.8601 24.4054H63.8121V21.283H56.1081V9.52173H51.8601V24.4054Z" fill="#8ECAE6"/>
<path d="M70.8932 22.3238C69.1892 22.3238 68.3012 21.0332 68.3012 19.0973C68.3012 17.1614 69.1892 15.8499 70.8932 15.8499C72.5972 15.8499 73.5092 17.1614 73.5092 19.0973C73.5092 21.0332 72.5972 22.3238 70.8932 22.3238ZM70.9172 24.7385C74.8772 24.7385 77.4692 22.303 77.4692 19.0973C77.4692 15.8916 74.8772 13.4561 70.9172 13.4561C66.9812 13.4561 64.3412 15.8916 64.3412 19.0973C64.3412 22.303 66.9812 24.7385 70.9172 24.7385Z" fill="#8ECAE6"/>
<path d="M84.3237 28.09C86.1477 28.09 87.7557 27.7361 88.8357 26.9035C89.8197 26.1333 90.4677 24.9675 90.4677 23.3647V13.7475H86.7237V14.8924H86.6757C85.9557 13.9973 84.8517 13.4353 83.2197 13.4353C80.1717 13.4353 78.0597 15.6418 78.0597 18.7643C78.0597 22.0324 80.6277 23.8226 83.3877 23.8226C84.8757 23.8226 85.8117 23.3022 86.5317 22.5945H86.6277V23.6561C86.6277 24.9467 85.9317 25.6961 84.2757 25.6961C82.9797 25.6961 82.3317 25.2173 82.1157 24.6553H78.3237C78.7077 26.8827 80.9397 28.09 84.3237 28.09ZM84.2997 21.3039C82.8357 21.3039 81.8757 20.2631 81.8757 18.6602C81.8757 17.0365 82.8357 15.9957 84.2997 15.9957C85.9317 15.9957 86.7957 17.2031 86.7957 18.6394C86.7957 20.1382 86.0037 21.3039 84.2997 21.3039Z" fill="#8ECAE6"/>
<path d="M98.166 22.3238C96.462 22.3238 95.574 21.0332 95.574 19.0973C95.574 17.1614 96.462 15.8499 98.166 15.8499C99.87 15.8499 100.782 17.1614 100.782 19.0973C100.782 21.0332 99.87 22.3238 98.166 22.3238ZM98.19 24.7385C102.15 24.7385 104.742 22.303 104.742 19.0973C104.742 15.8916 102.15 13.4561 98.19 13.4561C94.254 13.4561 91.614 15.8916 91.614 19.0973C91.614 22.303 94.254 24.7385 98.19 24.7385Z" fill="#8ECAE6"/>
<path d="M105.884 24.4054H109.796V13.7474H105.884V24.4054ZM105.884 12.2695H109.796V9.52173H105.884V12.2695Z" fill="#8ECAE6"/>
<path d="M111.494 27.9235H115.406V23.3022H115.454C116.222 24.1973 117.35 24.7386 118.934 24.7386C122.15 24.7386 124.286 22.532 124.286 19.0765C124.286 15.8708 122.294 13.4353 119.03 13.4353C117.35 13.4353 116.15 14.0806 115.31 15.0382H115.238V13.7475H111.494V27.9235ZM117.926 22.1157C116.246 22.1157 115.286 20.9292 115.286 19.2014C115.286 17.4737 116.15 16.1622 117.854 16.1622C119.534 16.1622 120.326 17.3696 120.326 19.2014C120.326 21.0124 119.414 22.1157 117.926 22.1157Z" fill="#8ECAE6"/>
<path d="M130.655 24.7386C133.871 24.7386 136.247 23.5312 136.247 21.1998C136.247 18.4729 133.703 17.9941 131.543 17.6818C129.983 17.432 128.591 17.328 128.591 16.5786C128.591 15.9124 129.335 15.6002 130.295 15.6002C131.375 15.6002 132.119 15.8916 132.263 16.8492H135.863C135.671 14.7467 133.799 13.4353 130.319 13.4353C127.415 13.4353 125.015 14.601 125.015 16.8492C125.015 19.3471 127.295 19.8467 129.431 20.159C131.063 20.4088 132.551 20.5129 132.551 21.4704C132.551 22.1573 131.807 22.532 130.631 22.532C129.335 22.532 128.519 22.0116 128.375 20.95H124.679C124.799 23.3022 127.055 24.7386 130.655 24.7386Z" fill="#8ECAE6"/>
<path d="M141.561 24.7178C143.265 24.7178 144.345 24.1349 145.233 23.0941H145.305V24.4055H149.049V13.7476H145.137V19.701C145.137 20.9708 144.321 21.8451 142.977 21.8451C141.729 21.8451 141.129 21.1998 141.129 20.0341V13.7476H137.241V20.7418C137.241 23.1149 138.729 24.7178 141.561 24.7178Z" fill="#8ECAE6"/>
<path d="M150.75 24.4055H154.662V18.4312C154.662 17.1614 155.382 16.2663 156.606 16.2663C157.782 16.2663 158.334 16.9324 158.334 18.0773V24.4055H162.246V18.4312C162.246 17.1614 162.942 16.2663 164.19 16.2663C165.366 16.2663 165.918 16.9324 165.918 18.0773V24.4055H169.83V17.4737C169.83 15.0798 168.438 13.4353 165.654 13.4353C164.07 13.4353 162.75 14.0182 161.79 15.3088H161.742C161.118 14.1639 159.894 13.4353 158.286 13.4353C156.51 13.4353 155.334 14.1639 154.566 15.2671H154.494V13.7475H150.75V24.4055Z" fill="#8ECAE6"/>
<path fill-rule="evenodd" clip-rule="evenodd" d="M20.6841 34.8135C31.7298 34.8135 40.6841 27.047 40.6841 17.4665C40.6841 7.88612 31.7298 0.119629 20.6841 0.119629C9.63837 0.119629 0.684082 7.88612 0.684082 17.4665C0.684082 27.047 9.63837 34.8135 20.6841 34.8135ZM26.9234 8.20056C27.2271 7.26488 26.1802 6.71158 25.2241 7.30239L11.8772 15.5494C10.8403 16.1901 11.0034 17.4665 12.1222 17.4665H15.6368V17.4429H22.4866L16.9053 19.151L14.4448 26.7326C14.1411 27.6683 15.1879 28.2216 16.1441 27.6307L29.491 19.3838C30.5279 18.7431 30.3647 17.4665 29.246 17.4665H23.9162L26.9234 8.20056Z" fill="#F5841F"/>
</svg>
